<mxfile host="Electron" modified="2024-07-05T20:36:13.668Z" agent="Mozilla/5.0 (X11; Linux x86_64) AppleWebKit/537.36 (KHTML, like Gecko) draw.io/24.5.3 Chrome/124.0.6367.207 Electron/30.0.6 Safari/537.36" etag="e7XGk3EmSHrmmD-MC3ot" version="24.5.3" type="device">
  <diagram name="Page-1" id="A7YKzxQwWuJ8HXr_RkU7">
    <mxGraphModel dx="688" dy="598" grid="1" gridSize="10" guides="1" tooltips="1" connect="1" arrows="1" fold="1" page="1" pageScale="1" pageWidth="827" pageHeight="1169" math="0" shadow="0">
      <root>
        <mxCell id="0" />
        <mxCell id="1" parent="0" />
        <mxCell id="oAGzt3gyq5lyIR1TZMTL-1" value="DB" style="shape=cylinder3;whiteSpace=wrap;html=1;boundedLbl=1;backgroundOutline=1;size=15;fillColor=#6d8764;fontColor=#ffffff;strokeColor=#3A5431;" parent="1" vertex="1">
          <mxGeometry x="510" y="210" width="60" height="80" as="geometry" />
        </mxCell>
        <mxCell id="oAGzt3gyq5lyIR1TZMTL-2" value="Customer" style="shape=umlActor;verticalLabelPosition=bottom;verticalAlign=top;html=1;outlineConnect=0;fillColor=#647687;fontColor=#A9C4EB;strokeColor=#314354;" parent="1" vertex="1">
          <mxGeometry x="79" y="220" width="30" height="60" as="geometry" />
        </mxCell>
        <mxCell id="oAGzt3gyq5lyIR1TZMTL-3" value="OAuth2" style="rounded=1;whiteSpace=wrap;html=1;rotation=-90;fillColor=#f0a30a;fontColor=#000000;strokeColor=#BD7000;" parent="1" vertex="1">
          <mxGeometry x="260" y="220" width="120" height="60" as="geometry" />
        </mxCell>
        <mxCell id="oAGzt3gyq5lyIR1TZMTL-4" value="Hash" style="rounded=1;whiteSpace=wrap;html=1;rotation=-90;fillColor=#e3c800;fontColor=#000000;strokeColor=#B09500;" parent="1" vertex="1">
          <mxGeometry x="370" y="220" width="120" height="60" as="geometry" />
        </mxCell>
        <mxCell id="oAGzt3gyq5lyIR1TZMTL-5" value="" style="endArrow=classic;html=1;rounded=0;exitX=0.583;exitY=1.033;exitDx=0;exitDy=0;exitPerimeter=0;fillColor=#647687;strokeColor=#314354;" parent="1" source="oAGzt3gyq5lyIR1TZMTL-3" edge="1">
          <mxGeometry width="50" height="50" relative="1" as="geometry">
            <mxPoint x="340" y="240" as="sourcePoint" />
            <mxPoint x="400" y="241" as="targetPoint" />
          </mxGeometry>
        </mxCell>
        <mxCell id="oAGzt3gyq5lyIR1TZMTL-7" value="" style="endArrow=classic;html=1;rounded=0;exitX=0.5;exitY=1;exitDx=0;exitDy=0;entryX=0;entryY=0.5;entryDx=0;entryDy=0;entryPerimeter=0;fillColor=#647687;strokeColor=#314354;" parent="1" edge="1">
          <mxGeometry width="50" height="50" relative="1" as="geometry">
            <mxPoint x="460" y="240" as="sourcePoint" />
            <mxPoint x="510" y="240" as="targetPoint" />
          </mxGeometry>
        </mxCell>
        <mxCell id="oAGzt3gyq5lyIR1TZMTL-8" value="" style="endArrow=classic;html=1;rounded=0;exitX=0.5;exitY=1;exitDx=0;exitDy=0;entryX=0.575;entryY=-0.033;entryDx=0;entryDy=0;entryPerimeter=0;fillColor=#647687;strokeColor=#314354;" parent="1" target="oAGzt3gyq5lyIR1TZMTL-3" edge="1">
          <mxGeometry width="50" height="50" relative="1" as="geometry">
            <mxPoint x="230" y="240.5" as="sourcePoint" />
            <mxPoint x="280" y="200" as="targetPoint" />
          </mxGeometry>
        </mxCell>
        <mxCell id="oAGzt3gyq5lyIR1TZMTL-9" value="Audiences" style="rounded=1;whiteSpace=wrap;html=1;rotation=-90;fillColor=#fa6800;fontColor=#000000;strokeColor=#C73500;" parent="1" vertex="1">
          <mxGeometry x="140" y="220" width="120" height="60" as="geometry" />
        </mxCell>
        <mxCell id="oAGzt3gyq5lyIR1TZMTL-10" value="" style="endArrow=classic;html=1;rounded=0;exitX=0.5;exitY=1;exitDx=0;exitDy=0;exitPerimeter=0;fillColor=#647687;strokeColor=#314354;" parent="1" edge="1">
          <mxGeometry width="50" height="50" relative="1" as="geometry">
            <mxPoint x="110" y="240.5" as="sourcePoint" />
            <mxPoint x="170" y="240.5" as="targetPoint" />
          </mxGeometry>
        </mxCell>
        <mxCell id="oAGzt3gyq5lyIR1TZMTL-12" value="" style="endArrow=classic;html=1;rounded=0;exitX=0.5;exitY=1;exitDx=0;exitDy=0;fillColor=#647687;strokeColor=#314354;" parent="1" edge="1">
          <mxGeometry width="50" height="50" relative="1" as="geometry">
            <mxPoint x="510" y="261" as="sourcePoint" />
            <mxPoint x="460" y="261" as="targetPoint" />
          </mxGeometry>
        </mxCell>
        <mxCell id="oAGzt3gyq5lyIR1TZMTL-14" value="" style="endArrow=classic;html=1;rounded=0;exitX=0.5;exitY=1;exitDx=0;exitDy=0;entryX=0.396;entryY=1.017;entryDx=0;entryDy=0;entryPerimeter=0;fillColor=#647687;strokeColor=#314354;" parent="1" target="oAGzt3gyq5lyIR1TZMTL-3" edge="1">
          <mxGeometry width="50" height="50" relative="1" as="geometry">
            <mxPoint x="399" y="262" as="sourcePoint" />
            <mxPoint x="349" y="262" as="targetPoint" />
          </mxGeometry>
        </mxCell>
        <mxCell id="oAGzt3gyq5lyIR1TZMTL-15" value="" style="endArrow=classic;html=1;rounded=0;entryX=0.396;entryY=1.017;entryDx=0;entryDy=0;entryPerimeter=0;exitX=0.413;exitY=-0.033;exitDx=0;exitDy=0;exitPerimeter=0;fillColor=#647687;strokeColor=#314354;" parent="1" source="oAGzt3gyq5lyIR1TZMTL-3" edge="1">
          <mxGeometry width="50" height="50" relative="1" as="geometry">
            <mxPoint x="280" y="260" as="sourcePoint" />
            <mxPoint x="230" y="260" as="targetPoint" />
          </mxGeometry>
        </mxCell>
        <mxCell id="oAGzt3gyq5lyIR1TZMTL-16" value="" style="endArrow=classic;html=1;rounded=0;entryX=0.396;entryY=1.017;entryDx=0;entryDy=0;entryPerimeter=0;fillColor=#647687;strokeColor=#314354;" parent="1" edge="1">
          <mxGeometry width="50" height="50" relative="1" as="geometry">
            <mxPoint x="170" y="260" as="sourcePoint" />
            <mxPoint x="109" y="260" as="targetPoint" />
          </mxGeometry>
        </mxCell>
        <mxCell id="A5d5kIs3LO2L4BREoXHR-1" value="" style="endArrow=classic;html=1;rounded=0;exitX=0;exitY=0.75;exitDx=0;exitDy=0;fillColor=#647687;strokeColor=#314354;" edge="1" parent="1">
          <mxGeometry width="50" height="50" relative="1" as="geometry">
            <mxPoint x="332" y="310" as="sourcePoint" />
            <mxPoint x="332" y="360" as="targetPoint" />
          </mxGeometry>
        </mxCell>
        <mxCell id="A5d5kIs3LO2L4BREoXHR-2" value="" style="endArrow=classic;html=1;rounded=0;entryX=0;entryY=0.25;entryDx=0;entryDy=0;fillColor=#647687;strokeColor=#314354;" edge="1" parent="1">
          <mxGeometry width="50" height="50" relative="1" as="geometry">
            <mxPoint x="308" y="360" as="sourcePoint" />
            <mxPoint x="308" y="310" as="targetPoint" />
          </mxGeometry>
        </mxCell>
        <mxCell id="A5d5kIs3LO2L4BREoXHR-3" value="Basic access authentication" style="rounded=1;whiteSpace=wrap;html=1;rotation=0;fillColor=#647687;fontColor=#ffffff;strokeColor=#314354;" vertex="1" parent="1">
          <mxGeometry x="260" y="360" width="120" height="60" as="geometry" />
        </mxCell>
        <mxCell id="A5d5kIs3LO2L4BREoXHR-4" value="Admin" style="shape=umlActor;verticalLabelPosition=bottom;verticalAlign=top;html=1;outlineConnect=0;fillColor=#647687;fontColor=#A9C4EB;strokeColor=#314354;" vertex="1" parent="1">
          <mxGeometry x="305" y="470" width="30" height="60" as="geometry" />
        </mxCell>
        <mxCell id="A5d5kIs3LO2L4BREoXHR-7" value="" style="endArrow=classic;html=1;rounded=0;exitX=0;exitY=0.75;exitDx=0;exitDy=0;fillColor=#647687;strokeColor=#314354;" edge="1" parent="1">
          <mxGeometry width="50" height="50" relative="1" as="geometry">
            <mxPoint x="331.5" y="420" as="sourcePoint" />
            <mxPoint x="331.5" y="470" as="targetPoint" />
          </mxGeometry>
        </mxCell>
        <mxCell id="A5d5kIs3LO2L4BREoXHR-8" value="" style="endArrow=classic;html=1;rounded=0;entryX=0;entryY=0.25;entryDx=0;entryDy=0;fillColor=#647687;strokeColor=#314354;" edge="1" parent="1">
          <mxGeometry width="50" height="50" relative="1" as="geometry">
            <mxPoint x="307.5" y="470" as="sourcePoint" />
            <mxPoint x="307.5" y="420" as="targetPoint" />
          </mxGeometry>
        </mxCell>
      </root>
    </mxGraphModel>
  </diagram>
</mxfile>
